PathFileType	4	(X/Y/Z)	C:/Users/beibeiliu/ov580/test_trc/capture2\sequence.11_training_dense_left.trc
DataRate	CameraRate	NumFrames	NumMarkers	Units	OrigDataRate	OrigDataStartFrame	OrigNumFrames
120	120	14	19	mm	120	1	350
Frame#	Time	ThumbCMC			ThumbMCP			ThumbIP			ThumbTip			IndexMCP			IndexPIP			IndexTip			MiddleMCP			MiddlePIP			MiddleTip			RingMCP			RingPIP			RingTip			PinkyMCP			PinkyPIP			PinkyTip			BackHand1			BackHand2			BackHand3	
		X0	Y0	Z0	X1	Y1	Z1	X2	Y2	Z2	X3	Y3	Z3	X4	Y4	Z4	X5	Y5	Z5	X6	Y6	Z6	X7	Y7	Z7	X8	Y8	Z8	X9	Y9	Z9	X10	Y10	Z10	X11	Y11	Z11	X12	Y12	Z12	X13	Y13	Z13	X14	Y14	Z14	X15	Y15	Z15	X16	Y16	Z16	X17	Y17	Z17	X18	Y18	Z18	
0	0	-126.844	39.3795	-41.6937	-109.891	24.7143	-55.2151	-86.6154	20.8306	-69.5677	-67.7879	16.2756	-84.2457	-134.65	48.6879	-117.061	-126.987	45.8765	-140.336	-123.018	47.2637	-169.775	-156.705	50.9577	-127.001	-157.486	49.041	-153.599	-159.092	45.6397	-182.203	-176.923	45.7429	-126.897	-180.375	43.4284	-147.204	-183.507	40.4041	-173.263	-203.4	38.0537	-114.598	-208.74	33.5907	-131.24	-214.916	36.4565	-155.615	-181.5	59.1646	-78.4627	-185.851	63.3477	-44.1296	-152.956	62.2233	-59.6884	
1	0.00833333	-128.591	38.7516	-45.0806	-108.868	26.1997	-57.2908	-91.263	21.0104	-73.3549	-68.7606	16.8831	-85.6582	-135.709	49.5371	-119.566	-128.942	47.6129	-145.82	-125.993	47.4083	-172.3	-156.619	51.2526	-130.544	-157.336	49.3131	-151.839	-160.019	46.749	-182.888	-182.294	46.5946	-126.085	-180.368	43.0042	-148.509	-184.016	41.2455	-179.115	-201.202	38.5002	-111.721	-210.963	34.6622	-137.113	-218.414	38.2509	-154.82	-184.805	58.5497	-75.641	-185.017	64.0658	-47.5118	-152.523	61.134	-62.0572	
2	0.0166667	-128.748	39.9659	-44.0348	-110.732	27.8415	-56.1411	-85.9257	22.8739	-75.3111	-71.8924	19.1862	-84.4261	-130.054	50.7053	-123.199	-129.29	48.5793	-144.583	-122.593	48.9586	-168.55	-159.059	53.0678	-128.19	-157.518	50.2229	-153.874	-156.829	48.1847	-181.811	-177.066	47.5534	-124.837	-180.496	43.229	-153.733	-184.721	41.5129	-178.808	-202.572	40.5279	-113.884	-210.384	35.0361	-135.724	-216.469	36.4157	-156.544	-185.314	60.371	-76.9892	-184.38	63.2442	-48.2248	-154.367	62.3886	-60.1045	
3	0.025	-125.415	39.776	-47.9437	-110.72	27.134	-59.1057	-88.4981	22.9366	-73.7556	-71.801	19.4652	-82.0854	-133.272	50.9232	-122.796	-124.762	49.5571	-147.078	-128.101	48.742	-168.354	-157.153	52.6468	-126.736	-157.889	49.9754	-156.019	-159.459	47.5355	-182.655	-176.923	47.3106	-127.637	-181.343	42.9616	-152.664	-182.045	40.9704	-174.117	-198.245	39.1348	-113.28	-205.904	35.5307	-136.386	-216.501	37.5046	-156.702	-184.038	58.4626	-79.5776	-188.974	62.5308	-49.6145	-153.395	62.1029	-62.6596	
4	0.0333333	-129.953	41.006	-45.0452	-108.083	29.0643	-60.2297	-85.8016	25.4108	-71.2207	-67.7041	22.1951	-81.783	-130.188	53.9752	-118.895	-125.775	52.1222	-142.21	-121.656	51.5519	-167.072	-154.071	55.8638	-132.149	-153.99	50.9128	-158.24	-155.551	48.5437	-181.39	-180.925	47.2466	-127.115	-178.879	43.8719	-154.407	-182.348	39.43	-179.222	-203.102	38.6552	-115.703	-203.611	34.6201	-135.71	-215.564	35.5029	-158.032	-184.942	60.7958	-78.9824	-183.511	63.3917	-50.2704	-154.409	62.631	-62.4176	
5	0.0416667	-127.831	42.0631	-49.0641	-108.552	30.3951	-60.0621	-85.7235	26.7331	-75.9599	-65.9227	23.7257	-82.8466	-129.003	55.5315	-117.55	-126.873	52.6507	-146.896	-121.128	51.3659	-167.565	-157.615	55.4661	-131.331	-154.081	51.9905	-155.928	-157.174	45.6927	-183.137	-180.919	47.5957	-127.249	-181.222	42.5794	-154.67	-182.661	37.1334	-176.697	-200.04	39.2997	-115.764	-202.787	33.5717	-134.194	-214.064	30.1973	-157.973	-181.886	60.6567	-74.993	-186.139	62.0222	-48.2514	-151.326	63.6269	-60.4001	
6	0.05	-124.607	43.3407	-48.4603	-105.212	30.7526	-60.3201	-87.8563	25.349	-72.8526	-68.2663	23.5998	-84.3761	-131.692	56.8864	-123.306	-123.623	53.8881	-142.738	-122.906	50.4877	-168.949	-158.097	56.2689	-131.882	-153.632	52.3926	-154.153	-154.292	43.9533	-185.391	-175.822	48.4701	-124.968	-179.534	41.9798	-152.081	-177.737	34.5115	-180.701	-201.278	37.8424	-115.975	-204.574	30.6998	-139.657	-212.18	27.7205	-160.171	-180.3	58.8728	-74.4444	-187.351	61.9493	-46.6036	-154.446	65.8352	-59.3877	
7	0.0583333	-125.665	43.1028	-43.4875	-107.125	29.4505	-57.6317	-83.1634	26.4037	-74.6984	-66.0212	23.0143	-83.412	-130.603	58.239	-121.168	-122.055	53.9684	-147.099	-123.664	50.3366	-169.292	-155.924	56.7454	-131.003	-154.222	51.7567	-154.971	-149.929	40.4681	-187.051	-175.138	49.0608	-126.026	-181.045	40.8945	-152.727	-179.001	31.819	-176.926	-200.694	38.4782	-118.539	-202.404	31.0953	-136.414	-209.996	24.8493	-163.34	-185.459	58.79	-74.6306	-186.868	61.3805	-48.0638	-151.284	66.6356	-59.3649	
8	0.0666667	-126.505	40.7029	-45.6921	-108.062	27.6679	-60.3341	-89.1225	23.7294	-75.3143	-68.1283	20.711	-89.641	-131.203	57.747	-117.913	-123.567	54.359	-147.22	-117.937	48.775	-172.027	-155.731	57.0818	-126.879	-156.478	50.6262	-158.14	-152.453	39.6703	-184.095	-177.088	49.0669	-127.336	-179.985	41.524	-152.279	-174.189	30.3428	-178.949	-200.759	38.1385	-113.901	-202.28	31.1708	-135.453	-210.234	24.9466	-161.494	-183.136	57.9331	-75.5806	-188.573	59.6027	-44.7046	-153.807	63.1042	-57.7931	
9	0.075	-128.766	41.1767	-44.6967	-104.686	28.1343	-58.6006	-85.7252	24.4678	-72.2052	-72.4414	18.8508	-88.6265	-129.855	58.0606	-119.049	-126.817	55.4812	-143.116	-122.281	50.4302	-170.187	-154.043	58.1738	-129.097	-152.312	52.8138	-155.905	-151.423	40.3272	-182.576	-173.716	50.2089	-128.29	-180.825	42.5574	-151.042	-175.607	29.9609	-177.199	-195.993	38.7477	-113.604	-203.304	29.7401	-137.862	-208.104	24.4853	-160.358	-185.906	58.6651	-75.3103	-187.71	60.9687	-48.7468	-152.918	64.2467	-56.9952	
10	0.0833333	-125.259	42.7463	-46.7443	-106.118	28.8793	-59.325	-85.8361	23.8891	-75.4397	-67.8478	19.9403	-89.5668	-131.562	57.5599	-121.006	-123.387	54.9161	-144.111	-121.937	48.7171	-172.611	-154.843	57.9244	-131.094	-152.829	52.1746	-155.017	-154.728	39.9402	-182.884	-179.768	47.9644	-126.587	-180.071	41.7819	-151.365	-175.058	29.8119	-178.872	-195.618	37.8277	-114.05	-202.474	29.8443	-137.261	-208.136	23.6482	-159.295	-185.128	58.5648	-75.1727	-186.128	59.9785	-49.8382	-154.293	65.4143	-58.8972	
11	0.0916667	-129.579	39.949	-44.724	-104.878	27.3405	-56.5495	-85.3476	22.5376	-72.9423	-72.208	17.2727	-88.8919	-129.969	55.9577	-121.163	-122.939	52.4665	-146.461	-122.532	47.7527	-169.006	-155.204	56.1828	-128.171	-155.394	50.8161	-157.304	-153.453	38.5111	-186.527	-178.699	47.1601	-124.635	-177.374	41.1174	-150.505	-178.579	30.0649	-175.852	-195.682	37.4109	-119.338	-201.003	29.2705	-135.205	-211.554	22.161	-160.598	-184.844	59.5952	-77.3593	-188.791	60.7683	-48.3816	-150.966	62.5164	-60.4614	
12	0.1	-129.035	40.3406	-48.9987	-110.117	24.9568	-59.9164	-85.362	20.4499	-72.4652	-69.2394	16.6268	-86.8279	-129.192	54.9802	-121.997	-121.474	51.825	-145.121	-121.565	47.2028	-167.746	-153.525	55.3577	-129.924	-155.113	49.3753	-158.45	-155.539	39.6929	-183.169	-180.351	46.5902	-126.202	-176.283	39.9064	-153.442	-177.814	28.9339	-177.199	-199.324	35.3919	-114.294	-203.354	27.5481	-134.081	-210.706	21.595	-161.477	-180.297	56.9703	-78.313	-186.237	59.8058	-45.944	-153.387	61.4272	-58.5305	
13	0.108333	-126.782	40.8944	-45.1866	-104.222	27.5994	-59.7334	-83.749	23.0571	-75.558	-67.9983	17.3973	-89.6283	-133.415	54.9309	-120.004	-124.769	52.9915	-143.691	-121.241	46.6695	-172.32	-155.317	56.0749	-132.052	-153.661	49.824	-158.241	-153.494	40.1281	-182.925	-177.524	46.6564	-128.26	-179.075	39.8142	-150.015	-177.769	28.9989	-175.651	-196.577	35.4816	-118.873	-204.465	24.0318	-138.629	-209.631	18.8573	-160.199	-180.69	56.8232	-78.6568	-185.148	62.0793	-48.9346	-153	65.0558	-57.46	
